<svg id="Layer_1" data-name="Layer 1" xmlns="http://www.w3.org/2000/svg" viewBox="0 0 145.11 40"><path d="M15.5,14A1.5,1.5,0,1,1,14,12.5,1.5,1.5,0,0,1,15.5,14ZM20,12a2,2,0,1,0,2,2A2,2,0,0,0,20,12Zm-6,6a2,2,0,1,0,2,2A2,2,0,0,0,14,18Zm6-.5A2.5,2.5,0,1,0,22.5,20,2.5,2.5,0,0,0,20,17.5ZM8,13a1,1,0,1,0,1,1A1,1,0,0,0,8,13ZM2,18a2,2,0,1,0,2,2A2,2,0,0,0,2,18Zm6,.5A1.5,1.5,0,1,0,9.5,20,1.5,1.5,0,0,0,8,18.5ZM20,0a2,2,0,1,0,2,2A2,2,0,0,0,20,0ZM14,7a1,1,0,1,0,1,1A1,1,0,0,0,14,7Zm6-.5A1.5,1.5,0,1,0,21.5,8,1.5,1.5,0,0,0,20,6.5ZM8,5.5A2.5,2.5,0,1,0,10.5,8,2.5,2.5,0,0,0,8,5.5ZM38,18a2,2,0,1,0,2,2A2,2,0,0,0,38,18ZM26,12.5A1.5,1.5,0,1,0,27.5,14,1.5,1.5,0,0,0,26,12.5Zm6,.5a1,1,0,1,0,1,1A1,1,0,0,0,32,13Zm-6,5a2,2,0,1,0,2,2A2,2,0,0,0,26,18Zm6,.5A1.5,1.5,0,1,0,33.5,20,1.5,1.5,0,0,0,32,18.5ZM26,7a1,1,0,1,0,1,1A1,1,0,0,0,26,7Zm6-1.5A2.5,2.5,0,1,0,34.5,8,2.5,2.5,0,0,0,32,5.5ZM20,36a2,2,0,1,0,2,2A2,2,0,0,0,20,36ZM14,24.5A1.5,1.5,0,1,0,15.5,26,1.5,1.5,0,0,0,14,24.5Zm6-.5a2,2,0,1,0,2,2A2,2,0,0,0,20,24Zm-6,7a1,1,0,1,0,1,1A1,1,0,0,0,14,31Zm6-.5A1.5,1.5,0,1,0,21.5,32,1.5,1.5,0,0,0,20,30.5ZM8,25a1,1,0,1,0,1,1A1,1,0,0,0,8,25Zm0,4.5A2.5,2.5,0,1,0,10.5,32,2.5,2.5,0,0,0,8,29.5Zm18-5A1.5,1.5,0,1,0,27.5,26,1.5,1.5,0,0,0,26,24.5Zm6,.5a1,1,0,1,0,1,1A1,1,0,0,0,32,25Zm-6,6a1,1,0,1,0,1,1A1,1,0,0,0,26,31Zm6-1.5A2.5,2.5,0,1,0,34.5,32,2.5,2.5,0,0,0,32,29.5Zm25.68-7A3.86,3.86,0,0,0,59,21.7a4,4,0,0,0,.92-1.18A6.83,6.83,0,0,0,60.5,19l-2.6-.63a3.86,3.86,0,0,1-.65,1.52,1.62,1.62,0,0,1-1.4.6,1.68,1.68,0,0,1-1.61-.89,5.16,5.16,0,0,1-.47-2.44V14.87a5.21,5.21,0,0,1,.47-2.45,1.67,1.67,0,0,1,1.61-.88,1.92,1.92,0,0,1,.83.16,1.54,1.54,0,0,1,.57.43,2.32,2.32,0,0,1,.39.67c.09.26.18.55.26.86L60.5,13a6.91,6.91,0,0,0-.57-1.55A4,4,0,0,0,59,10.31a4,4,0,0,0-1.33-.75,5.31,5.31,0,0,0-1.77-.27,4.39,4.39,0,0,0-3.86,1.76A8.38,8.38,0,0,0,50.79,16a8.4,8.4,0,0,0,1.26,5,4.42,4.42,0,0,0,3.86,1.76A5.59,5.59,0,0,0,57.68,22.46ZM71.54,21A8.58,8.58,0,0,0,72.78,16a8.52,8.52,0,0,0-1.24-4.94,5.05,5.05,0,0,0-7.68,0A8.45,8.45,0,0,0,62.62,16,8.5,8.5,0,0,0,63.86,21a5.05,5.05,0,0,0,7.68,0Zm-5.49-1.37a5.45,5.45,0,0,1-.45-2.44V14.87a5.49,5.49,0,0,1,.45-2.45,2,2,0,0,1,3.29,0,5.35,5.35,0,0,1,.46,2.45v2.25a5.36,5.36,0,0,1-.46,2.46,2,2,0,0,1-3.29,0Zm15.71,2.91,3.44-13h-3l-1.54,6.6-.78,3.74h-.15L79,16.11l-1.53-6.6H74.37l3.45,13Zm14.3,0V20.43H93.27V11.58h2.79V9.51H87.69v2.07h2.79v8.85H87.69v2.06Zm3.52,0h4.18a4.54,4.54,0,0,0,3.89-1.67A7.91,7.91,0,0,0,108.91,16a7.88,7.88,0,0,0-1.26-4.81,4.55,4.55,0,0,0-3.89-1.68H99.58Zm2.75-2.19V11.71h1.25a2.08,2.08,0,0,1,1.82.8,3.92,3.92,0,0,1,.58,2.3v2.36a4,4,0,0,1-.58,2.33,2.1,2.1,0,0,1-1.82.8ZM119,18.14V15.5h-6v2.64Zm14.32,4.35V20.24H130.6V9.51h-4.28l-3.1,4.09L125,15l2.64-3.46h.17v8.7h-3.5v2.25Zm11.42-10.17a4.66,4.66,0,0,0-1-1.63,4.23,4.23,0,0,0-1.56-1,5.69,5.69,0,0,0-2.09-.36,6,6,0,0,0-2,.33,4.59,4.59,0,0,0-1.55,1,4,4,0,0,0-1,1.44,4.6,4.6,0,0,0-.36,1.83,4.4,4.4,0,0,0,.3,1.67,3.89,3.89,0,0,0,.81,1.28,3.41,3.41,0,0,0,1.22.82,4,4,0,0,0,1.52.29,3.41,3.41,0,0,0,1.11-.17,2.79,2.79,0,0,0,.82-.44,2.71,2.71,0,0,0,.59-.63,4.16,4.16,0,0,0,.42-.73l.17.05a6.47,6.47,0,0,1-.66,1.77,8.54,8.54,0,0,1-1.17,1.59,16,16,0,0,1-1.68,1.55c-.64.51-1.36,1.05-2.16,1.6h3.85a13.15,13.15,0,0,0,1.68-1.37,11,11,0,0,0,1.52-1.85A10,10,0,0,0,144.68,17a7.61,7.61,0,0,0,.43-2.59A6.16,6.16,0,0,0,144.77,12.32Zm-6.11,2.91a2,2,0,0,1-.53-1.49v-.26a2.07,2.07,0,0,1,.52-1.5,2,2,0,0,1,1.53-.53,2,2,0,0,1,1.52.53,2.07,2.07,0,0,1,.51,1.5v.26a2,2,0,0,1-.54,1.49,2.09,2.09,0,0,1-1.49.51A2.12,2.12,0,0,1,138.66,15.23ZM54,33.45a1.79,1.79,0,0,0,.65-.37,1.51,1.51,0,0,0,.4-.57,1.78,1.78,0,0,0,.13-.7,1.46,1.46,0,0,0-.36-1,1.82,1.82,0,0,0-1-.5l-.57-.1A1.28,1.28,0,0,1,52.6,30a.55.55,0,0,1-.17-.43c0-.43.26-.65.79-.65a1.6,1.6,0,0,1,.67.13,1.79,1.79,0,0,1,.52.38l.66-.74a2,2,0,0,0-.76-.53,3,3,0,0,0-1.1-.19,2.26,2.26,0,0,0-1.45.43,1.53,1.53,0,0,0-.51,1.23,1.46,1.46,0,0,0,1.39,1.56l.57.09a1.23,1.23,0,0,1,.57.22.56.56,0,0,1,.17.44.68.68,0,0,1-.22.54,1,1,0,0,1-.65.19,1.86,1.86,0,0,1-.72-.15,2,2,0,0,1-.65-.49l-.68.75a2.15,2.15,0,0,0,.82.62,3,3,0,0,0,1.2.22A2.75,2.75,0,0,0,54,33.45Zm7.77,0v-1H59.38V28H58.19v5.47Zm6.56,0v-1H66V31.2H68.2v-1H66V29h2.32V28H64.79v5.47Zm3.08,0h1.76a1.91,1.91,0,0,0,1.63-.71,3.26,3.26,0,0,0,.53-2,3.28,3.28,0,0,0-.53-2A1.91,1.91,0,0,0,73.12,28H71.36Zm1.15-.93V29H73a.87.87,0,0,1,.76.33,1.6,1.6,0,0,1,.25,1v1a1.61,1.61,0,0,1-.25,1,.87.87,0,0,1-.76.33Zm9.14.93v-.87H80.48V28.89h1.17V28H78.13v.87h1.18v3.73H78.13v.87Zm6.83,0v-1H86.14V28H85v5.47Zm5.25,0h1.41V28h-1v3.64h-.09L92.81,28H91.4v5.47h1V29.86h.09Zm8,0v-.87h-1.17V28.89h1.17V28H98.2v.87h1.18v3.73H98.2v.87Zm6,0H109l-1.71-3.16L109,28h-1.32l-1,1.38-.6.91H106V28h-1.17v5.47H106v-1.6l.49-.68Z"/></svg>