<svg height="15.827379mm" viewBox="0 0 15.807241 15.827379" width="15.807241mm" xmlns="http://www.w3.org/2000/svg" xmlns:xlink="http://www.w3.org/1999/xlink"><clipPath id="a"><path d="m8.48392 56.0143h24.05318v-21.2321h-24.05318z"/></clipPath><path d="m0 0c-6.644-.015-12.041 5.359-12.056 12.002-.013 6.644 5.36 12.04 12.002 12.055 3.559.008 6.939-1.56 9.23-4.283-3.159-4.675-3.159-10.801 0-15.477-.575-.705-1.238-1.335-1.971-1.875-2.069-1.577-4.601-2.428-7.203-2.418" fill="#100f0d" transform="matrix(.35277777 0 0 -.35277777 4.253098 8.505156)"/><g clip-path="url(#a)" opacity=".350006" transform="matrix(.35277777 0 0 -.35277777 -2.991932 28.097766)"><path d="m0 0c-6.644-.014-12.04 5.361-12.053 12.004-.008 3.559 1.561 6.937 4.283 9.228 4.676-3.159 10.802-3.159 15.478 0 .705-.577 1.335-1.241 1.874-1.976 1.578-2.069 2.428-4.602 2.418-7.203.007-6.641-5.364-12.033-12.005-12.052" fill="#100f0d" transform="translate(20.5371 34.7822)"/></g><g fill="#100f0d"><path d="m0 0c-4.675 3.159-10.802 3.159-15.477 0-.706.577-1.335 1.241-1.874 1.977-1.578 2.069-2.427 4.601-2.418 7.203-.007 2.587.823 5.107 2.369 7.181 3.952 5.338 11.483 6.462 16.822 2.51 5.338-3.953 6.462-11.484 2.51-16.822-.561-.756-1.206-1.445-1.927-2.049" transform="matrix(.35277777 0 0 -.35277777 14.280068 7.490256)"/><path d="m0 0c-3.541.009-6.898 1.575-9.181 4.283 3.16 4.675 3.16 10.802 0 15.477.578.705 1.242 1.335 1.977 1.874 2.068 1.578 4.6 2.428 7.203 2.419 6.644.007 12.034-5.373 12.04-12.017.007-6.642-5.373-12.033-12.017-12.04h-.023" transform="matrix(.35277777 0 0 -.35277777 11.560148 15.825646)"/></g></svg>