<svg enable-background="new 0 0 22.71 23.71" height="23.7" viewBox="0 0 22.71 23.71" width="22.7" xmlns="http://www.w3.org/2000/svg"><path d="m6.1 12.2c-3.4 0-6.1-2.7-6.1-6.1s2.7-6.1 6.1-6.1c1.8 0 3.5.8 4.7 2.2-1.6 2.4-1.6 5.5 0 7.8-.3.4-.6.7-1 .9-1.1.9-2.4 1.3-3.7 1.3"/><path d="m6.1 22.449147c-3.4 0-5.62470018-2.422741-5.62470018-5.822741 0-1.8.70758058-2.958687 2.10758058-4.158687 2.4 1.6 5.0609149 1.458164 7.3609148-.14184.3999998.3.4240148.295487.7164338.695487.707581 1.166014 1.159544 2.17863 1.251963 3.47863-.164055 3.460392-2.412192 5.949147-5.812192 5.949147" fill="none" stroke="#000" stroke-linejoin="round"/><path d="m20.5 10.7c-2.4-1.6-5.5-1.6-7.8 0-.4-.3-.7-.6-.9-1-.8-1.1-1.2-2.3-1.2-3.6s.4-2.6 1.2-3.6c2-2.7 5.887065-3.41247977 8.5-1.3 2.620783 2.118825 3.181175 5.7867972 1.3 8.5-.4.4-.7.7-1.1 1"/><path d="m16.6 22.8c-1.8 0-3.5-.9-4.7-2.3 1.6-2.4 1.6-5.5 0-7.8.3-.4.6-.7 1-.9 1.1-.8 2.3-1.2 3.6-1.2 3.4 0 6.1 2.7 6.1 6.1s-2.6 6.1-6 6.1z"/></svg>