<?xml version="1.0" encoding="utf-8"?>
<!-- Generator: Adobe Illustrator 19.0.0, SVG Export Plug-In . SVG Version: 6.00 Build 0)  -->
<svg version="1.1" id="Layer_1" xmlns="http://www.w3.org/2000/svg" xmlns:xlink="http://www.w3.org/1999/xlink" x="0px" y="0px"
	 viewBox="-12 14 24 24" style="enable-background:new -12 14 24 24;" xml:space="preserve">
<style type="text/css">
	.st0{fill:#BF5747;fill-opacity:0.75;}
</style>
<path class="st0" d="M3,27H1v2c0,0.6-0.4,1-1,1s-1-0.4-1-1v-2h-2c-0.6,0-1-0.4-1-1c0-0.6,0.4-1,1-1h2v-2c0-0.6,0.4-1,1-1s1,0.4,1,1
	v2h2c0.6,0,1,0.4,1,1C4,26.6,3.6,27,3,27 M5.7,20.3C4.1,18.8,2.1,18,0,18s-4.1,0.8-5.7,2.3C-7.2,21.9-8,23.9-8,26
	c0,2.1,0.8,4.1,2.3,5.7c3.1,3.1,8.2,3.1,11.3,0C7.2,30.1,8,28.1,8,26C8,23.9,7.2,21.9,5.7,20.3"/>
</svg>
