<?xml version="1.0" encoding="utf-8"?>
<!-- Generator: Adobe Illustrator 19.0.0, SVG Export Plug-In . SVG Version: 6.00 Build 0)  -->
<svg version="1.1" id="Layer_1" xmlns="http://www.w3.org/2000/svg" xmlns:xlink="http://www.w3.org/1999/xlink" x="0px" y="0px"
	 viewBox="-12 14 24 24" style="enable-background:new -12 14 24 24;" xml:space="preserve">
<style type="text/css">
	.st0{fill:#BF5747;}
</style>
<path class="st0" d="M5.7,20.3C4.1,18.8,2.1,18,0,18s-4.1,0.8-5.7,2.3C-7.2,21.9-8,23.9-8,26s0.8,4.1,2.3,5.7C-4.1,33.2-2.1,34,0,34
	c2.1,0,4.1-0.8,5.7-2.3C8.8,28.5,8.8,23.5,5.7,20.3z M3.8,27.3H1.3v2.5c0,0.8-0.5,1.3-1.3,1.3s-1.3-0.5-1.3-1.3v-2.5h-2.5
	c-0.8,0-1.3-0.5-1.3-1.3s0.5-1.3,1.3-1.3h2.5v-2.5c0-0.8,0.5-1.3,1.3-1.3s1.3,0.5,1.3,1.3v2.5h2.5c0.8,0,1.3,0.5,1.3,1.3
	S4.6,27.3,3.8,27.3"/>
</svg>
