<svg xmlns="http://www.w3.org/2000/svg" width="24" height="24" viewBox="0 0 24 24"><path fill-opacity=".75" fill-rule="evenodd" d="M15 12h-2v4c0 .552-.448 1-1 1s-1-.448-1-1v-4H9c-.552 0-1-.447-1-1 0-.553.448-1 1-1h2V8c0-.553.448-1 1-1s1 .447 1 1v2h2c.552 0 1 .447 1 1 0 .553-.448 1-1 1m2.657-5.657C16.147 4.833 14.137 4 12 4s-4.146.833-5.657 2.344C4.833 7.854 4 9.864 4 12.002c0 2.137.832 4.146 2.343 5.658 3.12 3.12 8.195 3.12 11.314 0C19.168 16.148 20 14.14 20 12c0-2.136-.832-4.146-2.343-5.657"/></svg>