<?xml version="1.0" encoding="utf-8"?>
<!-- Generator: Adobe Illustrator 19.0.0, SVG Export Plug-In . SVG Version: 6.00 Build 0)  -->
<svg version="1.1" id="Layer_1" xmlns="http://www.w3.org/2000/svg" xmlns:xlink="http://www.w3.org/1999/xlink" x="0px" y="0px"
	 viewBox="-12 14 24 24" style="enable-background:new -12 14 24 24;" xml:space="preserve">
<style type="text/css">
	.st0{fill:#665191;fill-opacity:0.75;}
	.st1{fill:#FFFFFF;}
</style>
<path class="st0" d="M5.7,20.3C4.1,18.8,2.1,18,0,18s-4.1,0.8-5.7,2.3C-7.2,21.9-8,23.9-8,26c0,2.1,0.8,4.1,2.3,5.7
	c3.1,3.1,8.2,3.1,11.3,0C7.2,30.1,8,28.1,8,26C8,23.9,7.2,21.9,5.7,20.3"/>
<g>
	<path class="st1" d="M-1.2,22.8c0.4,0.4,0.5,0.8,0.5,1.3c0,0.5-0.2,0.9-0.5,1.3C-1.6,25.8-2,26-2.5,26c-0.5,0-0.9-0.2-1.3-0.5
		c-0.4-0.4-0.5-0.8-0.5-1.3c0-0.5,0.2-0.9,0.5-1.3c0.4-0.4,0.8-0.5,1.3-0.5C-2,22.3-1.6,22.5-1.2,22.8z M-2.5,23.4
		c-0.2,0-0.4,0.1-0.5,0.2c-0.1,0.1-0.2,0.3-0.2,0.5c0,0.2,0.1,0.4,0.2,0.5c0.1,0.1,0.3,0.2,0.5,0.2c0.2,0,0.4-0.1,0.5-0.2
		c0.1-0.1,0.2-0.3,0.2-0.5c0-0.2-0.1-0.4-0.2-0.5C-2.1,23.5-2.3,23.4-2.5,23.4z M-1.1,29.7h-1.5l3.7-7.3h1.4L-1.1,29.7z M3.8,26.6
		c0.4,0.4,0.5,0.8,0.5,1.3c0,0.5-0.2,0.9-0.5,1.3c-0.4,0.4-0.8,0.5-1.3,0.5c-0.5,0-0.9-0.2-1.3-0.5c-0.4-0.4-0.5-0.8-0.5-1.3
		c0-0.5,0.2-0.9,0.5-1.3C1.6,26.2,2,26,2.5,26C3,26,3.5,26.2,3.8,26.6z M2.5,27.1c-0.2,0-0.4,0.1-0.5,0.2s-0.2,0.3-0.2,0.5
		s0.1,0.4,0.2,0.5c0.1,0.1,0.3,0.2,0.5,0.2c0.2,0,0.4-0.1,0.5-0.2c0.1-0.1,0.2-0.3,0.2-0.5S3.2,27.5,3,27.3S2.7,27.1,2.5,27.1z"/>
</g>
</svg>
