<svg xmlns="http://www.w3.org/2000/svg" width="24" height="24" viewBox="0 0 24 24">
    <path fill="#20B16D" fill-rule="evenodd" d="M9.172 15.829c-.553 0-1-.447-1-1 0-.277.112-.527.292-.708.182-.18.432-.293.708-.293h3.243l-3.951-3.95c-.39-.39-.39-1.024 0-1.414.39-.39 1.024-.39 1.415 0l3.95 3.95V9.172c0-.553.447-1 1-1 .552 0 1 .447 1 1v5.655c0 .132-.027.261-.078.384-.101.245-.296.438-.54.54-.122.052-.252.078-.383.078H9.172zm8.485 1.83C19.167 16.15 20 14.14 20 12.003c0-2.138-.832-4.148-2.343-5.659C16.146 4.833 14.137 4 12 4s-4.146.832-5.657 2.343C4.832 7.854 4 9.864 4 12.002c0 2.137.832 4.146 2.343 5.658 3.12 3.12 8.195 3.12 11.314 0z"/>
</svg>
