<svg xmlns="http://www.w3.org/2000/svg" xmlns:xlink="http://www.w3.org/1999/xlink" width="24" height="24" viewBox="0 0 24 24">
    <defs>
        <path id="prefix__a" d="M0 0L20 0 20 20 0 20z"/>
    </defs>
    <g fill="none" fill-rule="evenodd" transform="translate(2 2)">
        <mask id="prefix__b" fill="#fff">
            <use xlink:href="#prefix__a"/>
        </mask>
        <path fill="#000" d="M12.829 14.242l-2.83-2.828-2.827 2.828-1.414-1.414L8.586 10 5.758 7.172l1.414-1.414L10 8.586l2.829-2.828 1.414 1.414L11.413 10l2.83 2.828-1.414 1.414zM9.999 0C7.442 0 4.883.976 2.93 2.93c-3.905 3.904-3.905 10.236 0 14.141 1.953 1.952 4.512 2.93 7.07 2.93 2.56 0 5.12-.978 7.073-2.93 3.905-3.905 3.905-10.237 0-14.142C15.119.976 12.559 0 10 0zm0 2c2.138 0 4.147.832 5.658 2.343 3.119 3.12 3.119 8.195 0 11.314C14.146 17.168 12.137 18 10 18c-2.136 0-4.146-.832-5.656-2.343C2.832 14.145 2 12.137 2 10s.832-4.146 2.344-5.657C5.854 2.833 7.864 2 10 2z" mask="url(#prefix__b)"/>
    </g>
</svg>
