<?xml version="1.0" encoding="UTF-8"?>
<svg width="24px" height="24px" viewBox="0 0 24 24" version="1.1" xmlns="http://www.w3.org/2000/svg" xmlns:xlink="http://www.w3.org/1999/xlink">
    <title>icon/close</title>
    <g id="icon/close" stroke="none" stroke-width="1" fill="none" fill-rule="evenodd">
        <path d="M3.70724987,3.70725004 C4.09771523,3.31678468 4.73078468,3.31678468 5.12125004,3.70725004 L5.12125004,3.70725004 L12.1915,10.778 L19.2630417,3.7075 C19.6237155,3.3468262 20.1912453,3.31908206 20.5837431,3.62426758 L20.678,3.7075 L20.678,3.7075 L20.7612661,3.80180076 C21.0664195,4.19430498 21.0386427,4.76181639 20.6779583,5.12245831 L20.6779583,5.12245831 L13.6065,12.193 L20.678,19.264 C21.0384295,19.6244295 21.0661549,20.1915749 20.761176,20.5838069 L20.678,20.678 C20.2875313,21.0684687 19.6544594,21.068478 19.2639792,20.6780208 L19.2639792,20.6780208 L12.1915,13.607 L5.12029169,20.6782916 L5.12029169,20.6782916 L5.0259219,20.7615887 C4.63383639,21.0662311 4.06706846,21.0383233 3.707,20.678 C3.31676704,20.2874909 3.31686965,19.6546117 3.70722922,19.2642291 L3.70722922,19.2642291 L10.7775,12.193 L3.70727088,5.12222921 C3.34666905,4.76164862 3.31882712,4.19427659 3.62381817,3.8017643 Z" id="Combined-Shape" fill="#000000"></path>
    </g>
</svg>