<svg enable-background="new -12 14 24 24" viewBox="-12 14 24 24" xmlns="http://www.w3.org/2000/svg"><g fill="#665191"><circle cx="-2.8" cy="23.7" r=".8"/><circle cx="2.8" cy="28.2" r=".8"/><path d="m5.7 20.3c-1.6-1.5-3.6-2.3-5.7-2.3s-4.1.8-5.7 2.3c-1.5 1.6-2.3 3.6-2.3 5.7s.8 4.1 2.3 5.7c1.6 1.5 3.6 2.3 5.7 2.3s4.1-.8 5.7-2.3c3.1-3.2 3.1-8.2 0-11.4zm-10.8 3.4c0-1.2 1-2.3 2.3-2.3s2.3 1 2.3 2.3-1 2.3-2.3 2.3-2.3-1-2.3-2.3zm2.9 6.5c-.2.2-.4.3-.6.3s-.3-.1-.5-.2-.3-.4-.3-.6.1-.3.2-.5l5.6-7.5c.1-.2.4-.3.6-.3s.3.1.5.2.3.4.3.6 0 .3-.1.5zm5 .3c-1.2 0-2.3-1-2.3-2.3 0-1.2 1-2.3 2.3-2.3s2.3 1 2.3 2.3-1 2.3-2.3 2.3z"/></g></svg>