<svg height="24" viewBox="0 0 24 24" width="24" xmlns="http://www.w3.org/2000/svg"><path d="m9.172 15.829c-.553 0-1-.447-1-1 0-.277.112-.527.292-.708.182-.18.432-.293.708-.293h3.243l-3.951-3.95c-.39-.39-.39-1.024 0-1.414s1.024-.39 1.415 0l3.95 3.95v-3.242c0-.553.447-1 1-1 .552 0 1 .447 1 1v5.655c0 .132-.027.261-.078.384-.101.245-.296.438-.54.54-.122.052-.252.078-.383.078zm8.485 1.83c1.51-1.509 2.343-3.519 2.343-5.656 0-2.138-.832-4.148-2.343-5.659s-3.52-2.344-5.657-2.344-4.146.832-5.657 2.343-2.343 3.521-2.343 5.659c0 2.137.832 4.146 2.343 5.658 3.12 3.12 8.195 3.12 11.314 0z" fill="#20b16d" fill-rule="evenodd"/></svg>