<svg viewBox="0 0 80 80" xmlns="http://www.w3.org/2000/svg"><path d="m31 28a3 3 0 1 1 -3-3 3 3 0 0 1 3 3zm9-4a4 4 0 1 0 4 4 4 4 0 0 0 -4-4zm-12 12a4 4 0 1 0 4 4 4 4 0 0 0 -4-4zm12-1a5 5 0 1 0 5 5 5 5 0 0 0 -5-5zm-24-9a2 2 0 1 0 2 2 2 2 0 0 0 -2-2zm-12 10a4 4 0 1 0 4 4 4 4 0 0 0 -4-4zm12 1a3 3 0 1 0 3 3 3 3 0 0 0 -3-3zm24-37a4 4 0 1 0 4 4 4 4 0 0 0 -4-4zm-12 14a2 2 0 1 0 2 2 2 2 0 0 0 -2-2zm12-1a3 3 0 1 0 3 3 3 3 0 0 0 -3-3zm36 23a4 4 0 1 0 4 4 4 4 0 0 0 -4-4zm-24-11a3 3 0 1 0 3 3 3 3 0 0 0 -3-3zm12 1a2 2 0 1 0 2 2 2 2 0 0 0 -2-2zm-12 10a4 4 0 1 0 4 4 4 4 0 0 0 -4-4zm12 1a3 3 0 1 0 3 3 3 3 0 0 0 -3-3zm-12-23a2 2 0 1 0 2 2 2 2 0 0 0 -2-2zm-12 58a4 4 0 1 0 4 4 4 4 0 0 0 -4-4zm-12-23a3 3 0 1 0 3 3 3 3 0 0 0 -3-3zm12-1a4 4 0 1 0 4 4 4 4 0 0 0 -4-4zm-12 14a2 2 0 1 0 2 2 2 2 0 0 0 -2-2zm12-1a3 3 0 1 0 3 3 3 3 0 0 0 -3-3zm-24-11a2 2 0 1 0 2 2 2 2 0 0 0 -2-2zm36-1a3 3 0 1 0 3 3 3 3 0 0 0 -3-3zm12 1a2 2 0 1 0 2 2 2 2 0 0 0 -2-2zm-12 12a2 2 0 1 0 2 2 2 2 0 0 0 -2-2z"/></svg>