<svg xmlns="http://www.w3.org/2000/svg" xmlns:xlink="http://www.w3.org/1999/xlink" width="72" height="72" viewBox="0 0 72 72">
    <defs>
        <filter id="wk8i1sapia" width="150%" height="150%" x="-25%" y="-17.9%" filterUnits="objectBoundingBox">
            <feOffset dy="4" in="SourceAlpha" result="shadowOffsetOuter1"/>
            <feGaussianBlur in="shadowOffsetOuter1" result="shadowBlurOuter1" stdDeviation="4"/>
            <feColorMatrix in="shadowBlurOuter1" values="0 0 0 0 0 0 0 0 0 0 0 0 0 0 0 0 0 0 0.12 0"/>
        </filter>
        <circle id="id5dfkjn2b" cx="28" cy="28" r="28"/>
    </defs>
    <g fill="none" fill-rule="evenodd">
        <g>
            <g>
                <g transform="translate(-296 -736) translate(304 740)">
                    <use fill="#000" filter="url(#wk8i1sapia)" xlink:href="#id5dfkjn2b"/>
                    <use fill="#FFD922" xlink:href="#id5dfkjn2b"/>
                </g>
                <g fill="#000">
                    <path d="M3 2c.552 0 1 .448 1 1v17h17c.552 0 1 .448 1 1s-.448 1-1 1H3c-.552 0-1-.448-1-1V3c0-.552.448-1 1-1zm5 10c.552 0 1 .448 1 1v4c0 .552-.448 1-1 1H7c-.552 0-1-.448-1-1v-4c0-.552.448-1 1-1h1zm5-2c.552 0 1 .448 1 1v6c0 .552-.448 1-1 1h-1c-.552 0-1-.448-1-1v-6c0-.552.448-1 1-1h1zm5-4c.552 0 1 .448 1 1v10c0 .552-.448 1-1 1h-1c-.552 0-1-.448-1-1V7c0-.552.448-1 1-1h1z" transform="translate(-296 -736) translate(304 740) translate(16 16)"/>
                </g>
            </g>
        </g>
    </g>
</svg>
