<svg height="72" viewBox="0 0 72 72" width="72" xmlns="http://www.w3.org/2000/svg" xmlns:xlink="http://www.w3.org/1999/xlink"><defs><filter id="a" height="150%" width="150%" x="-25%" y="-17.9%"><feOffset dy="4" in="SourceAlpha" result="shadowOffsetOuter1"/><feGaussianBlur in="shadowOffsetOuter1" result="shadowBlurOuter1" stdDeviation="4"/><feColorMatrix in="shadowBlurOuter1" values="0 0 0 0 0 0 0 0 0 0 0 0 0 0 0 0 0 0 0.12 0"/></filter><circle id="b" cx="28" cy="28" r="28"/></defs><g fill="none" fill-rule="evenodd"><g transform="translate(8 4)"><use fill="#000" filter="url(#a)" xlink:href="#b"/><use fill="#ffd922" xlink:href="#b"/></g><path d="m3 2c.552 0 1 .448 1 1v17h17c.552 0 1 .448 1 1s-.448 1-1 1h-18c-.552 0-1-.448-1-1v-18c0-.552.448-1 1-1zm5 10c.552 0 1 .448 1 1v4c0 .552-.448 1-1 1h-1c-.552 0-1-.448-1-1v-4c0-.552.448-1 1-1zm5-2c.552 0 1 .448 1 1v6c0 .552-.448 1-1 1h-1c-.552 0-1-.448-1-1v-6c0-.552.448-1 1-1zm5-4c.552 0 1 .448 1 1v10c0 .552-.448 1-1 1h-1c-.552 0-1-.448-1-1v-10c0-.552.448-1 1-1z" fill="#000" transform="translate(24 20)"/></g></svg>