<svg xmlns="http://www.w3.org/2000/svg" xmlns:xlink="http://www.w3.org/1999/xlink" width="24" height="24" viewBox="0 0 24 24"><defs><path id="prefix__a" d="M0 0L20 0 20 14 0 14z"/></defs><g fill="none" fill-rule="evenodd" transform="translate(2 5)"><mask id="prefix__b" fill="#fff"><use xlink:href="#prefix__a"/></mask><path fill="#000" d="M19.707 6.293l-6-6c-.391-.391-1.023-.391-1.414 0s-.391 1.023 0 1.414L16.586 6H1c-.552 0-1 .447-1 1 0 .553.448 1 1 1h15.586l-4.293 4.293c-.391.391-.391 1.023 0 1.414.195.195.451.293.707.293.256 0 .512-.098.707-.293l6-6c.391-.391.391-1.023 0-1.414" mask="url(#prefix__b)"/></g></svg>
