<svg height="24" viewBox="0 0 24 24" width="24" xmlns="http://www.w3.org/2000/svg" xmlns:xlink="http://www.w3.org/1999/xlink"><mask id="a" fill="#fff"><path d="m0 0h20v14h-20z" fill="#fff" fill-rule="evenodd"/></mask><path d="m19.707 6.293-6-6c-.391-.391-1.023-.391-1.414 0s-.391 1.023 0 1.414l4.293 4.293h-15.586c-.552 0-1 .447-1 1s.448 1 1 1h15.586l-4.293 4.293c-.391.391-.391 1.023 0 1.414.195.195.451.293.707.293s.512-.098.707-.293l6-6c.391-.391.391-1.023 0-1.414" fill-rule="evenodd" mask="url(#a)" transform="translate(2 5)"/></svg>