<?xml version="1.0" encoding="UTF-8"?>
<svg width="24px" height="24px" viewBox="0 0 24 24" version="1.1" xmlns="http://www.w3.org/2000/svg" xmlns:xlink="http://www.w3.org/1999/xlink">
    <title>icon/graph</title>
    <g id="icon/graph" stroke="none" stroke-width="1" fill="none" fill-rule="evenodd">
        <path d="M3,2 C3.55228475,2 4,2.44771525 4,3 L4,20 L21,20 C21.5522847,20 22,20.4477153 22,21 C22,21.5522847 21.5522847,22 21,22 L3,22 C2.44771525,22 2,21.5522847 2,21 L2,3 C2,2.44771525 2.44771525,2 3,2 Z M8,12 C8.55228475,12 9,12.4477153 9,13 L9,17 C9,17.5522847 8.55228475,18 8,18 L7,18 C6.44771525,18 6,17.5522847 6,17 L6,13 C6,12.4477153 6.44771525,12 7,12 L8,12 Z M13,10 C13.5522847,10 14,10.4477153 14,11 L14,17 C14,17.5522847 13.5522847,18 13,18 L12,18 C11.4477153,18 11,17.5522847 11,17 L11,11 C11,10.4477153 11.4477153,10 12,10 L13,10 Z M18,6 C18.5522847,6 19,6.44771525 19,7 L19,17 C19,17.5522847 18.5522847,18 18,18 L17,18 C16.4477153,18 16,17.5522847 16,17 L16,7 C16,6.44771525 16.4477153,6 17,6 L18,6 Z" id="Combined-Shape" fill="#000000"></path>
    </g>
</svg>