<svg clip-rule="evenodd" fill-rule="evenodd" stroke-linejoin="round" stroke-miterlimit="2" viewBox="0 0 512 512" xmlns="http://www.w3.org/2000/svg"><path d="m256 0c141.29 0 256 114.71 256 256s-114.71 256-256 256-256-114.71-256-256 114.71-256 256-256zm149.439 390.919v-5.04l-23.389-22.963c-2.065-1.573-3.089-4.161-2.661-6.721v-168.719c-.428-2.561.596-5.148 2.661-6.722l23.95-22.962v-5.041h-82.912l-59.105 147.438-67.227-147.438h-86.975v5.041l28.012 33.744c2.751 2.478 4.154 6.119 3.781 9.802v132.595c.815 4.782-.692 9.669-4.06 13.161l-31.514 38.224v5.04h89.356v-5.04l-31.513-38.224c-3.394-3.485-4.995-8.34-4.342-13.161v-114.673l78.433 171.098h9.103l67.367-171.098v136.376c0 3.639 0 4.34-2.382 6.719l-24.229 23.524v5.04z"/></svg>