<svg fill="none" height="64" viewBox="0 0 64 64" width="64" xmlns="http://www.w3.org/2000/svg"><path d="m0 0h64v64h-64z"/><path clip-rule="evenodd" d="m59.4319 4.56426c.7575.75234.7575 1.97214 0 2.72448l-7.4523 7.40146c1.431 1.6215 1.3679 4.0904-.1896 5.6371l-2.3513 2.3353c1.4068 1.3972 1.4068 3.6626 0 5.0598l-18.0342 17.9111c1.2152 1.4056 1.1523 3.526-.1886 4.8578l-3.1351 3.1137c-1.4068 1.3972-3.6877 1.3972-5.0945 0l-2.1554-2.1407-.6178.6136c1.0323 1.3996.9116 3.3759-.3619 4.6408l-4.3108 4.2813-12.5404-12.4548 4.31077-4.2813c1.27355-1.2649 3.26343-1.3847 4.67273-.3595l.6178-.6136-2.3514-2.3352c-1.40679-1.3972-1.40679-3.6626 0-5.0598l3.1351-3.1137c1.3409-1.3317 3.4759-1.3941 4.8912-.1872l18.0343-17.9111c1.4068-1.3972 3.6877-1.3972 5.0945 0l2.3513-2.3353c1.4904-1.4802 3.831-1.6014 5.4606-.3635l7.4717-7.42074c.7576-.75235 1.9857-.75235 2.7433 0zm-43.8915 50.98674 1.3716-1.3622-2.1554-2.1407 3.3311-3.3083-2.7432-2.7245-3.3311 3.3083-2.15536-2.1406-1.37161 1.3622zm18.6147-33.2776 2.5473 2.5299c.7575.7523 1.9857.7523 2.7432 0 .7575-.7524.7575-1.9722 0-2.7245l-2.5473-2.5299 1.9594-1.946 2.5473 2.5298 5.0946-5.0597c.1082-.1075.2836-.1075.3918 0l2.1554 2.1406c.1082.1075.1082.2818 0 .3893l-5.0945 5.0597 2.5473 2.5299-20.5742 20.4336 2.3514 2.3353-2.7432 2.7245-12.3445-12.2602 2.7432-2.7245 2.3513 2.3353 2.7432-2.7245 2.5473 2.5299c.7575.7523 1.9857.7523 2.7432 0 .7576-.7524.7575-1.9722 0-2.7245l-2.5472-2.5299 4.1148-4.0867 2.5473 2.5299c.7575.7523 1.9857.7523 2.7432 0 .7575-.7524.7575-1.9722 0-2.7245l-2.5473-2.5299z" fill="#000" fill-rule="evenodd"/></svg>